<?xml version="1.0" encoding="UTF-8"?>
<svg width="520px" height="330px" viewBox="0 0 520 330" version="1.1" xmlns="http://www.w3.org/2000/svg" xmlns:xlink="http://www.w3.org/1999/xlink">
    <!-- Generator: Sketch 47.1 (45422) - http://www.bohemiancoding.com/sketch -->
    <title>Artboard</title>
    <desc>Created with Sketch.</desc>
    <defs></defs>
    <g id="Page-1" stroke="none" stroke-width="1" fill="none" fill-rule="evenodd">
        <g id="Artboard" fill-rule="nonzero" fill="#C40825">
            <g id="palm-tree" transform="translate(119.000000, 0.000000)">
                <path d="M226.383,69.207 C210.116,70.41 193.718,74.19 178.637,80.366 C190.639,79.881 202.856,81.746 214.169,85.732 C224.034,89.208 233.456,94.485 240.9,101.906 C245.396,106.388 248.578,111.373 251.435,116.988 C252.086,118.532 255.121,124.187 251.814,124.044 C251.01,124.01 250.067,123.366 249.373,123.047 C246.266,121.616 243.173,120.175 240.007,118.876 C233.403,116.165 226.737,113.809 219.922,111.698 C209.369,108.428 198.181,106.417 187.179,105.605 C213.135,115.68 239.529,139.393 241.184,168.878 C241.371,172.216 241.209,175.573 240.678,178.875 C240.44,180.356 238.897,181.309 237.467,180.864 C235.879,180.37 234.736,178.09 233.749,176.861 C229.126,171.108 224.229,165.572 219.014,160.349 C209.018,150.337 197.831,141.542 185.586,134.439 C195.092,146.836 201.952,161.715 204.34,177.2 C206.539,191.461 204.735,206.836 196.427,218.954 C195.483,220.331 194.398,222.339 192.397,221.836 C190.58,221.38 190.499,219.545 190.235,218.022 C189.626,214.502 188.938,210.996 188.162,207.51 C186.62,200.58 184.727,193.726 182.415,187.013 C177.942,174.019 171.804,161.883 164.317,150.63 C164.247,151.921 163.756,153.086 162.794,153.852 C160.682,155.534 157.204,154.683 155.03,151.953 C152.855,149.223 152.806,145.643 154.919,143.961 C156.082,143.035 157.659,142.879 159.204,143.379 C158.15,141.959 157.075,140.556 155.978,139.167 C156.052,141.464 155.034,143.483 153.205,144.208 C150.694,145.203 147.615,143.381 146.327,140.135 C145.041,136.889 146.034,133.45 148.546,132.453 C149.072,132.244 149.623,132.167 150.178,132.193 C146.602,128.105 142.837,124.163 138.901,120.367 C138.631,121.035 138.348,121.754 138.034,122.512 C137.771,123.156 137.495,123.836 137.205,124.547 C136.935,125.282 136.677,126.078 136.394,126.89 C136.114,127.703 135.823,128.55 135.521,129.428 C135.371,129.866 135.218,130.312 135.062,130.766 C134.923,131.237 134.783,131.716 134.64,132.202 C134.276,133.483 133.869,134.797 133.471,136.171 C134.082,136.083 134.698,136.122 135.293,136.321 C137.855,137.18 139.033,140.558 137.924,143.869 C136.815,147.179 133.841,149.169 131.277,148.31 C131.012,148.221 130.766,148.1 130.532,147.96 C130.153,149.648 129.768,151.362 129.41,153.154 C128.899,155.871 128.312,158.636 127.816,161.539 C126.8,167.33 125.828,173.471 124.971,179.877 C124.549,183.083 124.101,186.327 123.735,189.65 C123.339,192.958 122.958,196.31 122.626,199.708 C122.262,203.092 121.945,206.52 121.642,209.963 C121.315,213.395 121.057,216.867 120.78,220.326 C120.24,227.251 119.801,234.197 119.402,241.035 C119.032,247.881 118.705,254.62 118.455,261.15 C117.948,274.21 117.674,286.414 117.54,296.864 C117.456,303.337 117.429,309.138 117.431,314.054 C120.447,314.39 123.453,314.798 126.441,315.296 C134.718,316.674 142.887,318.713 150.798,321.519 C154.407,322.798 157.962,324.239 161.42,325.885 C162.818,326.551 169.001,328.828 169.001,330.546 C169.001,330.672667 121.995333,330.969333 27.984,331.436 C27.975,330.903 28.001,330.18 28.001,330.028 C37.326,323.957 48.304,320.047 59.369,317.458 C60.524,310.838 62.133,301.927 64.215,291.281 C66.295,280.634 68.838,268.247 71.782,255.015 C73.25,248.4 74.838,241.572 76.491,234.645 C78.173,227.717 79.917,220.691 81.768,213.676 C82.701,210.169 83.612,206.665 84.595,203.178 C85.552,199.692 86.522,196.222 87.537,192.783 C88.517,189.346 89.546,185.937 90.583,182.575 C91.587,179.213 92.674,175.895 93.723,172.637 C95.834,166.121 98.033,159.841 100.226,153.91 C101.308,150.944 102.484,148.065 103.553,145.288 C104.657,142.509 105.831,139.833 106.898,137.27 C108.003,134.707 109.174,132.258 110.226,129.938 C111.298,127.616 112.471,125.425 113.489,123.371 C113.749,122.858 114.004,122.354 114.255,121.857 C114.532,121.363 114.803,120.877 115.07,120.399 C115.605,119.446 116.121,118.528 116.617,117.646 C117.117,116.767 117.577,115.924 118.053,115.121 C118.561,114.321 119.044,113.559 119.504,112.835 C115.298,112.898 110.82,113.495 106.369,114.323 C102.54,115.036 98.701,115.814 94.897,116.729 C97.877,116.965 100.243,118.833 100.379,121.239 C100.532,123.935 97.831,126.285 94.346,126.484 C90.859,126.683 87.91,124.655 87.755,121.957 C87.668,120.421 88.509,119 89.892,118.022 C88.124,118.517 86.368,119.048 84.629,119.626 C83.407,120.032 82.209,120.472 81.002,120.902 C84.249,121.472 86.576,123.887 86.261,126.46 C85.932,129.143 82.855,130.972 79.389,130.545 C75.925,130.118 73.382,127.602 73.711,124.918 C73.775,124.401 73.943,123.915 74.195,123.471 C61.7,128.485 49.968,134.798 38.822,142.603 C30.955,148.111 23.756,154.456 16.671,160.92 C13.355,163.945 14.132,155.973 14.216,154.837 C14.613,152.365 14.985,149.947 15.603,147.521 C17.013,142.25 19.272,137.247 22.207,132.643 C35.012,112.549 58.293,99.571 81.481,95.461 C63.864,92.708 46.185,93.035 28.598,95.681 C20.077,96.964 11.731,99.042 3.413,101.243 C2.146,101.578 -1.016,101.75 0.33,99.424 C2.088,96.406 3.809,93.342 6.133,90.706 C9.826,86.518 13.851,82.886 18.588,79.87 C38.931,66.917 66.204,65.689 88.994,72.361 C81.019,66.219 72.521,60.649 63.516,56.121 C54.977,51.828 46.232,48.107 37.201,44.967 C35.928,44.524 33.782,44.23 32.735,43.285 C30.054,40.862 38.11,38.405 39.452,37.907 C43.215,36.511 47.367,35.405 51.394,35.157 C75.417,33.676 98.808,45.001 115.334,62.111 C105.277,42.918 91.804,26.259 75.633,11.883 C73.183,9.703 70.705,7.586 68.182,5.49 C67.296,4.754 65.5,3.727 64.94,2.645 C63.334,-0.458 71.624,0.029 72.999,0.027 C86.452,-0.002 99.26,5.812 109.652,14.093 C128.225,28.894 140.859,51.544 143.762,75.056 C163.543,54.546 196.227,44.248 224.114,49.88 C230.131,51.095 235.819,53.353 241.164,56.324 C243.016,57.355 244.855,58.593 246.512,59.922 C248.037,61.145 254.294,65.457 253.333,67.731 C252.443,69.834 245.493,68.558 243.693,68.526 C237.927,68.422 232.133,68.781 226.383,69.207 Z" id="Shape"></path>
            </g>
        </g>
    </g>
</svg>